# xmcd
#
# Track frame offsets:
#	150
#	14275
#	36868
#	47572
#	67311
#	80064
#	92538
#	108748
#	122095
#	141678
#	160568
#	173918
#
# Disc length: 2505 seconds
#
# Revision: 0
# Processed by: cddbd v1.4PL0 Copyright (c) Steve Scherf et al.
# Submitted via: EasyCDDAExtractor 4.6.9.1
#
DISCID=a709c70c
DTITLE=Dave Evans - Hand Out A Light For Me
DYEAR=2001
DGENRE=Bluegrass
TTITLE0=Hang Out A Light For Me
TTITLE1=Who Really Cares
TTITLE2=The Man In The Middle
TTITLE3=The Line In Between
TTITLE4=Wait A Little Longer, Please Jesus
TTITLE5=Heaven
TTITLE6=Give Mother My Crown
TTITLE7=He's Everything To Me
TTITLE8=The Darkest Hour Is Just Before Dawn
TTITLE9=Mansions For Me
TTITLE10=Take Me In A Lifeboat
TTITLE11=House Of Gold
EXTD=
EXTT0=
EXTT1=
EXTT2=
EXTT3=
EXTT4=
EXTT5=
EXTT6=
EXTT7=
EXTT8=
EXTT9=
EXTT10=
EXTT11=
PLAYORDER=
